<?xml version="1.0" encoding="UTF-8" standalone="no"?>
<svg xmlns="http://www.w3.org/2000/svg" version="1.1" width="48" height="48" viewBox="0 0 48 48">
  <g style="fill:none;stroke:#000000;stroke-width:2;stroke-linecap:round;stroke-linejoin:round;stroke-opacity:1">
    <path d="M24,8.06
             C27.39,12.01 29.35,16.46 29.18,20.22
             C31.33,18.62 32.93,16.1 33.83,13.07
             C36.69,16.64 38.1,21.11 38.1,25.22
             C38.1,30.93 31.86,34.85 24,34.85
             C16.14,34.85 9.9,30.93 9.9,25.22
             C9.9,21.11 11.31,16.64 14.17,13.07
             C15.07,16.1 16.67,18.62 18.82,20.22
             C18.65,16.46 20.61,12.01 24,8.06 Z"/>
    <ellipse cx="7.39" cy="35.92" rx="5.54" ry="4.11"/>
    <ellipse cx="18.46" cy="38.07" rx="6.43" ry="4.47"/>
    <ellipse cx="29.54" cy="38.07" rx="6.43" ry="4.47"/>
    <ellipse cx="40.61" cy="35.92" rx="5.54" ry="4.11"/>
  </g>
</svg>
