<?xml version="1.0" encoding="UTF-8" standalone="no"?>
<svg xmlns="http://www.w3.org/2000/svg" version="1.1" width="48" height="48" viewBox="0 0 48 48">
  <g style="fill:none;stroke:#000000;stroke-width:2;stroke-linecap:round;stroke-linejoin:round;stroke-opacity:1">
    <path d="M24,16.4
             C25.9,18.6 27.0,21.1 26.9,23.2
             C28.1,22.3 29.0,20.9 29.5,19.2
             C31.1,21.2 31.9,23.7 31.9,26.0
             C31.9,29.2 28.4,31.4 24.0,31.4
             C19.6,31.4 16.1,29.2 16.1,26.0
             C16.1,23.7 16.9,21.2 18.5,19.2
             C19.0,20.9 19.9,22.3 21.1,23.2
             C21.0,21.1 22.1,18.6 24,16.4 Z"/>
    <ellipse cx="14.7" cy="32.0" rx="3.1" ry="2.3"/>
    <ellipse cx="20.9" cy="33.2" rx="3.6" ry="2.5"/>
    <ellipse cx="27.1" cy="33.2" rx="3.6" ry="2.5"/>
    <ellipse cx="33.3" cy="32.0" rx="3.1" ry="2.3"/>
  </g>
</svg>
